<mxfile host="65bd71144e">
    <diagram name="Page-1" id="GBAONp4g8alL2ASO2OyH">
        <mxGraphModel dx="653" dy="645" grid="1" gridSize="10" guides="1" tooltips="1" connect="1" arrows="1" fold="1" page="1" pageScale="1" pageWidth="827" pageHeight="1169" math="0" shadow="0">
            <root>
                <mxCell id="0"/>
                <mxCell id="1" parent="0"/>
                <mxCell id="ESMXJ23Swdm2Nhl4uSE2-1" value="" style="swimlane;startSize=0;" parent="1" vertex="1">
                    <mxGeometry x="210" y="150" width="450" height="940" as="geometry"/>
                </mxCell>
                <mxCell id="ESMXJ23Swdm2Nhl4uSE2-2" value="Expense Tracker API" style="text;html=1;align=center;verticalAlign=middle;whiteSpace=wrap;rounded=0;" parent="ESMXJ23Swdm2Nhl4uSE2-1" vertex="1">
                    <mxGeometry x="20" y="10" width="130" height="30" as="geometry"/>
                </mxCell>
                <mxCell id="ESMXJ23Swdm2Nhl4uSE2-4" value="Signup" style="ellipse;whiteSpace=wrap;html=1;" parent="ESMXJ23Swdm2Nhl4uSE2-1" vertex="1">
                    <mxGeometry x="250" y="118" width="140" height="70" as="geometry"/>
                </mxCell>
                <mxCell id="ESMXJ23Swdm2Nhl4uSE2-5" value="Login" style="ellipse;whiteSpace=wrap;html=1;" parent="ESMXJ23Swdm2Nhl4uSE2-1" vertex="1">
                    <mxGeometry x="250" y="221" width="140" height="70" as="geometry"/>
                </mxCell>
                <mxCell id="ESMXJ23Swdm2Nhl4uSE2-12" value="Delete an Expense" style="ellipse;whiteSpace=wrap;html=1;" parent="ESMXJ23Swdm2Nhl4uSE2-1" vertex="1">
                    <mxGeometry x="250" y="821" width="140" height="70" as="geometry"/>
                </mxCell>
                <mxCell id="ESMXJ23Swdm2Nhl4uSE2-13" value="List Expenses" style="ellipse;whiteSpace=wrap;html=1;" parent="ESMXJ23Swdm2Nhl4uSE2-1" vertex="1">
                    <mxGeometry x="250" y="318" width="140" height="70" as="geometry"/>
                </mxCell>
                <mxCell id="ESMXJ23Swdm2Nhl4uSE2-14" value="Show an Expense" style="ellipse;whiteSpace=wrap;html=1;" parent="ESMXJ23Swdm2Nhl4uSE2-1" vertex="1">
                    <mxGeometry x="250" y="521" width="140" height="70" as="geometry"/>
                </mxCell>
                <mxCell id="ESMXJ23Swdm2Nhl4uSE2-10" value="Add an Expense" style="ellipse;whiteSpace=wrap;html=1;" parent="ESMXJ23Swdm2Nhl4uSE2-1" vertex="1">
                    <mxGeometry x="250" y="620" width="140" height="70" as="geometry"/>
                </mxCell>
                <mxCell id="ESMXJ23Swdm2Nhl4uSE2-11" value="Update an Expense" style="ellipse;whiteSpace=wrap;html=1;" parent="ESMXJ23Swdm2Nhl4uSE2-1" vertex="1">
                    <mxGeometry x="250" y="720" width="140" height="70" as="geometry"/>
                </mxCell>
                <mxCell id="ESMXJ23Swdm2Nhl4uSE2-20" value="List Expenses by filter" style="ellipse;whiteSpace=wrap;html=1;" parent="ESMXJ23Swdm2Nhl4uSE2-1" vertex="1">
                    <mxGeometry x="250" y="421" width="140" height="70" as="geometry"/>
                </mxCell>
                <mxCell id="ESMXJ23Swdm2Nhl4uSE2-3" value="User" style="shape=umlActor;verticalLabelPosition=bottom;verticalAlign=top;html=1;outlineConnect=0;" parent="1" vertex="1">
                    <mxGeometry x="110" y="360" width="30" height="60" as="geometry"/>
                </mxCell>
                <mxCell id="ESMXJ23Swdm2Nhl4uSE2-8" value="&amp;lt;&amp;lt;include&amp;gt;&amp;gt;" style="html=1;verticalAlign=bottom;labelBackgroundColor=none;endArrow=open;endFill=0;dashed=1;rounded=0;exitX=1;exitY=0.3333333333333333;exitDx=0;exitDy=0;exitPerimeter=0;entryX=0;entryY=0.5;entryDx=0;entryDy=0;" parent="1" source="ESMXJ23Swdm2Nhl4uSE2-3" target="ESMXJ23Swdm2Nhl4uSE2-4" edge="1">
                    <mxGeometry width="160" relative="1" as="geometry">
                        <mxPoint x="240" y="340" as="sourcePoint"/>
                        <mxPoint x="400" y="340" as="targetPoint"/>
                    </mxGeometry>
                </mxCell>
                <mxCell id="ESMXJ23Swdm2Nhl4uSE2-9" value="&amp;lt;&amp;lt;include&amp;gt;&amp;gt;" style="html=1;verticalAlign=bottom;labelBackgroundColor=none;endArrow=open;endFill=0;dashed=1;rounded=0;exitX=1;exitY=0.3333333333333333;exitDx=0;exitDy=0;exitPerimeter=0;entryX=0;entryY=0.5;entryDx=0;entryDy=0;" parent="1" source="ESMXJ23Swdm2Nhl4uSE2-3" target="ESMXJ23Swdm2Nhl4uSE2-5" edge="1">
                    <mxGeometry width="160" relative="1" as="geometry">
                        <mxPoint x="150" y="390" as="sourcePoint"/>
                        <mxPoint x="470" y="305" as="targetPoint"/>
                    </mxGeometry>
                </mxCell>
                <mxCell id="ESMXJ23Swdm2Nhl4uSE2-15" value="" style="endArrow=none;html=1;rounded=0;entryX=0;entryY=0.5;entryDx=0;entryDy=0;exitX=1;exitY=0.3333333333333333;exitDx=0;exitDy=0;exitPerimeter=0;" parent="1" source="ESMXJ23Swdm2Nhl4uSE2-3" target="ESMXJ23Swdm2Nhl4uSE2-13" edge="1">
                    <mxGeometry width="50" height="50" relative="1" as="geometry">
                        <mxPoint x="370" y="610" as="sourcePoint"/>
                        <mxPoint x="420" y="560" as="targetPoint"/>
                    </mxGeometry>
                </mxCell>
                <mxCell id="ESMXJ23Swdm2Nhl4uSE2-16" value="" style="endArrow=none;html=1;rounded=0;entryX=0;entryY=0.5;entryDx=0;entryDy=0;exitX=1;exitY=0.3333333333333333;exitDx=0;exitDy=0;exitPerimeter=0;" parent="1" source="ESMXJ23Swdm2Nhl4uSE2-3" target="ESMXJ23Swdm2Nhl4uSE2-14" edge="1">
                    <mxGeometry width="50" height="50" relative="1" as="geometry">
                        <mxPoint x="150" y="390" as="sourcePoint"/>
                        <mxPoint x="470" y="527" as="targetPoint"/>
                    </mxGeometry>
                </mxCell>
                <mxCell id="ESMXJ23Swdm2Nhl4uSE2-17" value="" style="endArrow=none;html=1;rounded=0;entryX=0;entryY=0.5;entryDx=0;entryDy=0;exitX=1;exitY=0.3333333333333333;exitDx=0;exitDy=0;exitPerimeter=0;" parent="1" source="ESMXJ23Swdm2Nhl4uSE2-3" target="ESMXJ23Swdm2Nhl4uSE2-10" edge="1">
                    <mxGeometry width="50" height="50" relative="1" as="geometry">
                        <mxPoint x="150" y="390" as="sourcePoint"/>
                        <mxPoint x="470" y="627" as="targetPoint"/>
                    </mxGeometry>
                </mxCell>
                <mxCell id="ESMXJ23Swdm2Nhl4uSE2-18" value="" style="endArrow=none;html=1;rounded=0;entryX=0;entryY=0.5;entryDx=0;entryDy=0;exitX=1;exitY=0.3333333333333333;exitDx=0;exitDy=0;exitPerimeter=0;" parent="1" source="ESMXJ23Swdm2Nhl4uSE2-3" target="ESMXJ23Swdm2Nhl4uSE2-11" edge="1">
                    <mxGeometry width="50" height="50" relative="1" as="geometry">
                        <mxPoint x="150" y="390" as="sourcePoint"/>
                        <mxPoint x="470" y="727" as="targetPoint"/>
                    </mxGeometry>
                </mxCell>
                <mxCell id="ESMXJ23Swdm2Nhl4uSE2-19" value="" style="endArrow=none;html=1;rounded=0;entryX=0;entryY=0.5;entryDx=0;entryDy=0;exitX=1;exitY=0.3333333333333333;exitDx=0;exitDy=0;exitPerimeter=0;" parent="1" source="ESMXJ23Swdm2Nhl4uSE2-3" target="ESMXJ23Swdm2Nhl4uSE2-12" edge="1">
                    <mxGeometry width="50" height="50" relative="1" as="geometry">
                        <mxPoint x="150" y="390" as="sourcePoint"/>
                        <mxPoint x="470" y="827" as="targetPoint"/>
                    </mxGeometry>
                </mxCell>
                <mxCell id="ESMXJ23Swdm2Nhl4uSE2-21" value="" style="endArrow=none;html=1;rounded=0;entryX=0;entryY=0.5;entryDx=0;entryDy=0;exitX=1;exitY=0.3333333333333333;exitDx=0;exitDy=0;exitPerimeter=0;" parent="1" source="ESMXJ23Swdm2Nhl4uSE2-3" target="ESMXJ23Swdm2Nhl4uSE2-20" edge="1">
                    <mxGeometry width="50" height="50" relative="1" as="geometry">
                        <mxPoint x="150" y="390" as="sourcePoint"/>
                        <mxPoint x="460" y="705" as="targetPoint"/>
                    </mxGeometry>
                </mxCell>
            </root>
        </mxGraphModel>
    </diagram>
</mxfile>